<svg xmlns="http://www.w3.org/2000/svg" width="800" height="600" viewBox="0 0 800 600">
  <defs>
    <linearGradient id="bg" x1="0%" y1="0%" x2="0%" y2="100%">
      <stop offset="0%" style="stop-color:#1a365d"/>
      <stop offset="100%" style="stop-color:#0d1b2a"/>
    </linearGradient>
  </defs>
  
  <rect width="800" height="600" fill="url(#bg)"/>
  
  <!-- Modern office background -->
  <rect x="0" y="0" width="800" height="600" fill="#1e3a5f" opacity="0.3"/>
  
  <!-- Glass building windows -->
  <rect x="50" y="50" width="150" height="200" fill="#2d4a6f" stroke="#4a90a4" stroke-width="2"/>
  <line x1="50" y1="100" x2="200" y2="100" stroke="#4a90a4" stroke-width="1"/>
  <line x1="50" y1="150" x2="200" y2="150" stroke="#4a90a4" stroke-width="1"/>
  <line x1="50" y1="200" x2="200" y2="200" stroke="#4a90a4" stroke-width="1"/>
  
  <rect x="600" y="50" width="150" height="200" fill="#2d4a6f" stroke="#4a90a4" stroke-width="2"/>
  <line x1="600" y1="100" x2="750" y2="100" stroke="#4a90a4" stroke-width="1"/>
  <line x1="600" y1="150" x2="750" y2="150" stroke="#4a90a4" stroke-width="1"/>
  <line x1="600" y1="200" x2="750" y2="200" stroke="#4a90a4" stroke-width="1"/>
  
  <!-- Meeting room table -->
  <ellipse cx="400" cy="400" rx="220" ry="60" fill="#4a5568"/>
  <ellipse cx="400" cy="400" rx="200" ry="50" fill="#2d3748"/>
  
  <!-- Documents on table -->
  <rect x="280" y="350" width="70" height="90" fill="white" stroke="#cbd5e0" stroke-width="1"/>
  <line x1="290" y1="370" x2="340" y2="370" stroke="#4a5568" stroke-width="2"/>
  <line x1="290" y1="385" x2="330" y2="385" stroke="#718096" stroke-width="1"/>
  <line x1="290" y1="395" x2="320" y2="395" stroke="#718096" stroke-width="1"/>
  
  <rect x="450" y="360" width="60" height="80" fill="white" stroke="#cbd5e0" stroke-width="1"/>
  <line x1="460" y1="380" x2="500" y2="380" stroke="#4a5568" stroke-width="2"/>
  <line x1="460" y1="395" x2="490" y2="395" stroke="#718096" stroke-width="1"/>
  
  <!-- Globe on table -->
  <circle cx="400" cy="320" r="55" fill="#3182ce"/>
  <circle cx="400" cy="320" r="50" fill="none" stroke="white" stroke-width="2"/>
  <path d="M360 300 Q400 270 440 300" fill="none" stroke="white" stroke-width="1"/>
  <path d="M365 340 Q400 360 435 340" fill="none" stroke="white" stroke-width="1"/>
  <ellipse cx="400" cy="320" rx="50" ry="15" fill="none" stroke="white" stroke-width="1"/>
  
  <!-- Business person 1 - left -->
  <circle cx="200" cy="340" r="30" fill="#f7d0b6"/>
  <!-- Suit -->
  <ellipse cx="200" cy="410" rx="35" ry="50" fill="#1a202c"/>
  <rect x="165" y="380" width="70" height="30" fill="#2d3748"/>
  <!-- White shirt -->
  <path d="M185 380 L200 410 L215 380 Z" fill="white"/>
  <!-- Red tie -->
  <path d="M200 380 L205 400 L200 410 L195 400 Z" fill="#e53e3e"/>
  <!-- Hair -->
  <ellipse cx="200" cy="305" rx="28" ry="12" fill="#2d3748"/>
  
  <!-- Business person 2 - right -->
  <circle cx="600" cy="340" r="30" fill="#f7d0b6"/>
  <!-- Suit -->
  <ellipse cx="600" cy="410" rx="35" ry="50" fill="#1a202c"/>
  <rect x="565" y="380" width="70" height="30" fill="#2d3748"/>
  <!-- White shirt -->
  <path d="M585 380 L600 410 L615 380 Z" fill="white"/>
  <!-- Blue tie -->
  <path d="M600 380 L605 400 L600 410 L595 400 Z" fill="#3182ce"/>
  <!-- Hair -->
  <ellipse cx="600" cy="305" rx="28" ry="12" fill="#4a5568"/>
  
  <!-- Business person 3 - center back -->
  <circle cx="400" cy="220" r="25" fill="#f7d0b6"/>
  <ellipse cx="400" cy="280" rx="30" ry="40" fill="#2d3748"/>
  <rect x="375" y="250" width="50" height="25" fill="#4a5568"/>
  <path d="M390 250 L400 275 L410 250 Z" fill="white"/>
  <ellipse cx="400" cy="192" rx="23" ry="10" fill="#1a202c"/>
  
  <!-- Handshake in center -->
  <path d="M340 400 Q370 380 400 400 Q430 420 460 400" fill="none" stroke="#ffd700" stroke-width="3"/>
  <circle cx="360" cy="390" r="12" fill="none" stroke="#ffd700" stroke-width="2"/>
  <circle cx="440" cy="390" r="12" fill="none" stroke="#ffd700" stroke-width="2"/>
  <text x="400" y="420" font-family="Arial" font-size="16" fill="#ffd700" text-anchor="middle">🤝 Partnership</text>
  
  <!-- Charts on wall -->
  <!-- Bar chart -->
  <rect x="80" y="300" width="100" height="80" fill="white" rx="3"/>
  <rect x="90" y="340" width="15" height="30" fill="#48bb78"/>
  <rect x="115" y="330" width="15" height="40" fill="#4299e1"/>
  <rect x="140" y="320" width="15" height="50" fill="#ed8936"/>
  <rect x="165" y="310" width="15" height="60" fill="#9f7aea"/>
  <text x="130" y="295" font-family="Arial" font-size="10" fill="#4a5568" text-anchor="middle">Growth</text>
  
  <!-- Line chart -->
  <rect x="600" y="300" width="100" height="80" fill="white" rx="3"/>
  <path d="M610 360 L640 340 L660 350 L680 320 L700 330" fill="none" stroke="#48bb78" stroke-width="2"/>
  <circle cx="610" cy="360" r="3" fill="#48bb78"/>
  <circle cx="640" cy="340" r="3" fill="#4299e1"/>
  <circle cx="660" cy="350" r="3" fill="#ed8936"/>
  <circle cx="680" cy="320" r="3" fill="#9f7aea"/>
  <circle cx="700" cy="330" r="3" fill="#f56565"/>
  <text x="650" y="295" font-family="Arial" font-size="10" fill="#4a5568" text-anchor="middle">Trends</text>
  
  <!-- Laptop -->
  <rect x="80" y="430" width="100" height="65" rx="5" fill="#1a202c"/>
  <rect x="85" y="435" width="90" height="50" fill="#2d3748"/>
  <rect x="120" y="495" width="30" height="10" fill="#1a202c"/>
  <text x="130" y="460" font-family="Arial" font-size="8" fill="#48bb78" text-anchor="middle">Analytics</text>
  
  <!-- Coffee cup -->
  <rect x="700" y="450" width="25" height="30" rx="3" fill="white"/>
  <path d="M725 455 Q738 460 725 472" fill="none" stroke="white" stroke-width="2"/>
  <rect x="703" y="448" width="5" height="4" fill="#c53030"/>
  
  <!-- Plant -->
  <rect x="50" y="500" width="20" height="40" fill="#8B4513"/>
  <ellipse cx="60" cy="490" rx="15" ry="20" fill="#228B22"/>
  <ellipse cx="45" cy="495" rx="12" ry="15" fill="#32CD32"/>
  <ellipse cx="75" cy="495" rx="12" ry="15" fill="#2E8B57"/>
  
  <!-- Ceiling lights -->
  <rect x="250" y="20" width="80" height="10" fill="#4a5568"/>
  <rect x="260" y="30" width="60" height="5" fill="#ffd700" opacity="0.8"/>
  <rect x="470" y="20" width="80" height="10" fill="#4a5568"/>
  <rect x="480" y="30" width="60" height="5" fill="#ffd700" opacity="0.8"/>
  
  <!-- World map connections -->
  <circle cx="700" cy="520" r="30" fill="none" stroke="#4a90a4" stroke-width="2"/>
  <circle cx="700" cy="520" r="25" fill="none" stroke="#63b3ed" stroke-width="1"/>
  <path d="M680 500 Q720 480 720 520" fill="none" stroke="#ffd700" stroke-width="1"/>
  <path d="M680 540 Q720 560 720 520" fill="none" stroke="#ffd700" stroke-width="1"/>
  <circle cx="680" cy="500" r="3" fill="#63b3ed"/>
  <circle cx="720" cy="520" r="3" fill="#63b3ed"/>
  <circle cx="680" cy="540" r="3" fill="#63b3ed"/>
  <text x="700" y="570" font-family="Arial" font-size="10" fill="#63b3ed" text-anchor="middle">Global Network</text>
  
  <!-- Title -->
  <text x="400" y="570" font-family="Arial" font-size="28" fill="white" text-anchor="middle" font-weight="bold">海外市场咨询</text>
  <text x="400" y="595" font-family="Arial" font-size="16" fill="#ffd700" text-anchor="middle">Overseas Market Consulting</text>
</svg>
