<svg xmlns="http://www.w3.org/2000/svg" width="800" height="600" viewBox="0 0 800 600">
  <defs>
    <linearGradient id="bg" x1="0%" y1="0%" x2="100%" y2="100%">
      <stop offset="0%" style="stop-color:#6B238E"/>
      <stop offset="50%" style="stop-color:#4B0082"/>
      <stop offset="100%" style="stop-color:#2E0854"/>
    </linearGradient>
  </defs>
  
  <rect width="800" height="600" fill="url(#bg)"/>
  
  <!-- Traditional Chinese Pagoda -->
  <rect x="150" y="250" width="80" height="200" fill="#8B4513"/>
  <rect x="140" y="230" width="100" height="25" fill="#A0522D"/>
  <rect x="155" y="200" width="70" height="35" fill="#A0522D"/>
  <rect x="170" y="180" width="40" height="25" fill="#8B4513"/>
  <path d="M130 230 L190 180 L250 230 Z" fill="#8B0000"/>
  <path d="M145 200 L190 160 L235 200 Z" fill="#A52A2A"/>
  <path d="M160 180 L190 150 L220 180 Z" fill="#8B4513"/>
  
  <!-- Traditional door -->
  <rect x="175" y="350" width="30" height="100" fill="#654321"/>
  <circle cx="190" cy="400" r="2" fill="#FFD700"/>
  
  <!-- Red lanterns -->
  <ellipse cx="80" cy="180" rx="18" ry="25" fill="#DC143C"/>
  <ellipse cx="80" cy="180" rx="12" ry="18" fill="#8B0000"/>
  <line x1="80" y1="155" x2="80" y2="130" stroke="#FFD700" stroke-width="2"/>
  
  <ellipse cx="280" cy="160" rx="18" ry="25" fill="#DC143C"/>
  <ellipse cx="280" cy="160" rx="12" ry="18" fill="#8B0000"/>
  <line x1="280" y1="135" x2="280" y2="115" stroke="#FFD700" stroke-width="2"/>
  
  <!-- Taiji symbol (Yin Yang) -->
  <circle cx="450" cy="300" r="70" fill="white"/>
  <circle cx="450" cy="300" r="65" fill="none" stroke="#333" stroke-width="2"/>
  <path d="M450 230 A70 70 0 0 1 450 370" fill="#8B0000"/>
  <path d="M450 370 A70 70 0 0 1 450 230" fill="#000080"/>
  <circle cx="450" cy="255" r="18" fill="#000080"/>
  <circle cx="450" cy="345" r="18" fill="#8B0000"/>
  
  <!-- Acupuncture/meridian points -->
  <path d="M580 200 L620 250 L660 200" fill="none" stroke="#FFD700" stroke-width="2"/>
  <path d="M580 220 L620 270 L660 220" fill="none" stroke="#FFD700" stroke-width="2"/>
  <path d="M580 240 L620 290 L660 240" fill="none" stroke="#FFD700" stroke-width="2"/>
  <circle cx="600" cy="225" r="5" fill="#FFD700"/>
  <circle cx="640" cy="225" r="5" fill="#FFD700"/>
  <circle cx="600" cy="265" r="5" fill="#FFD700"/>
  <circle cx="640" cy="265" r="5" fill="#FFD700"/>
  <text x="620" y="320" font-family="serif" font-size="16" fill="white" text-anchor="middle">针灸铜人</text>
  
  <!-- Traditional medicine bottles -->
  <rect x="500" y="400" width="30" height="60" rx="3" fill="#8B4513"/>
  <rect x="504" y="405" width="22" height="35" rx="2" fill="#C8E6C9"/>
  <text x="515" y="430" font-family="Arial" font-size="8" fill="#1a5f2a" text-anchor="middle">中药</text>
  
  <rect x="540" y="410" width="28" height="50" rx="3" fill="#654321"/>
  <rect x="544" y="415" width="20" height="30" rx="2" fill="#E8F5E9"/>
  
  <rect x="578" y="395" width="32" height="65" rx="3" fill="#8B4513"/>
  <rect x="582" y="400" width="24" height="40" rx="2" fill="#F1F8E9"/>
  
  <!-- Person in traditional dress -->
  <circle cx="350" cy="450" r="22" fill="#FFDAB9"/>
  <!-- Traditional hair bun -->
  <ellipse cx="350" cy="425" rx="18" ry="12" fill="#333"/>
  <rect x="345" y="408" width="10" height="20" fill="#333"/>
  <!-- Traditional clothing -->
  <ellipse cx="350" cy="500" rx="30" ry="45" fill="#DC143C"/>
  <path d="M350 470 L340 490 L350 510 L360 490 Z" fill="#8B0000"/>
  <!-- Fan -->
  <path d="M320 520 Q300 540 320 560" fill="none" stroke="#FFD700" stroke-width="2"/>
  <path d="M320 520 Q340 540 320 560" fill="none" stroke="#FFD700" stroke-width="2"/>
  
  <!-- Globe with connections -->
  <circle cx="650" cy="450" r="50" fill="none" stroke="#9932CC" stroke-width="2"/>
  <circle cx="650" cy="450" r="42" fill="none" stroke="#DA70D6" stroke-width="1"/>
  <path d="M620 420 Q650 390 680 420" fill="none" stroke="#FFD700" stroke-width="2"/>
  <path d="M620 480 Q650 510 680 480" fill="none" stroke="#FFD700" stroke-width="2"/>
  <path d="M600 450 L700 450" fill="none" stroke="#FFD700" stroke-width="2"/>
  <circle cx="620" cy="420" r="4" fill="#DA70D6"/>
  <circle cx="680" cy="420" r="4" fill="#DA70D6"/>
  <circle cx="620" cy="480" r="4" fill="#DA70D6"/>
  <circle cx="680" cy="480" r="4" fill="#DA70D6"/>
  
  <!-- Chinese knot decoration -->
  <path d="M700 180 L720 200 L720 240 L700 260 L680 240 L680 200 Z" fill="#DC143C"/>
  <circle cx="700" cy="170" r="10" fill="#8B0000"/>
  <line x1="700" y1="180" x2="700" y2="195" stroke="#FFD700" stroke-width="2"/>
  
  <!-- Fireworks/stars -->
  <circle cx="100" cy="100" r="3" fill="#FFD700"/>
  <circle cx="150" cy="80" r="2" fill="#FFD700"/>
  <circle cx="200" cy="120" r="3" fill="#DA70D6"/>
  <circle cx="250" cy="90" r="2" fill="#FFD700"/>
  <circle cx="300" cy="110" r="3" fill="#DA70D6"/>
  
  <!-- Stars -->
  <path d="M50 150 L52 145 L54 150 L59 152 L54 154 L52 159 L50 154 L45 152 Z" fill="#FFD700"/>
  <path d="M720 300 L722 295 L724 300 L729 302 L724 304 L722 309 L720 304 L715 302 Z" fill="#FFD700"/>
  <path d="M50 350 L52 345 L54 350 L59 352 L54 354 L52 359 L50 354 L45 352 Z" fill="#DA70D6"/>
  
  <!-- Title -->
  <text x="400" y="570" font-family="Arial" font-size="28" fill="white" text-anchor="middle" font-weight="bold">中医文化推广</text>
  <text x="400" y="595" font-family="Arial" font-size="16" fill="#DA70D6" text-anchor="middle">TCM Culture Promotion</text>
</svg>
